<svg width="992" height="67" viewBox="0 0 992 67" fill="none" xmlns="http://www.w3.org/2000/svg">
<path d="M307.415 40.964V31.92H322.115V40.964H307.415ZM393.92 14V23.828H368.356V31.192H392.884V41.02H368.356V56H356.736V14H393.92ZM439.076 23.996L437.06 39.984L439.076 56H427.204L426.364 49.532C424.815 51.884 422.883 53.704 420.568 54.992C418.253 56.28 415.668 56.924 412.812 56.924C409.713 56.924 406.96 56.224 404.552 54.824C402.163 53.4053 400.305 51.4173 398.98 48.86C397.655 46.284 396.992 43.3347 396.992 40.012C396.992 36.6707 397.655 33.7213 398.98 31.164C400.305 28.588 402.163 26.6 404.552 25.2C406.96 23.7813 409.713 23.072 412.812 23.072C415.649 23.072 418.235 23.7067 420.568 24.976C422.901 26.2453 424.843 28.0467 426.392 30.38L427.204 23.996H439.076ZM416.256 48.16C417.768 48.16 419.215 47.8147 420.596 47.124C421.996 46.4147 423.219 45.444 424.264 44.212C425.328 42.98 426.121 41.58 426.644 40.012C426.121 38.444 425.328 37.044 424.264 35.812C423.219 34.5613 421.996 33.5907 420.596 32.9C419.215 32.1907 417.768 31.836 416.256 31.836C414.763 31.836 413.428 32.1907 412.252 32.9C411.095 33.5907 410.189 34.5613 409.536 35.812C408.883 37.044 408.556 38.444 408.556 40.012C408.556 41.58 408.883 42.98 409.536 44.212C410.189 45.444 411.095 46.4147 412.252 47.124C413.428 47.8147 414.763 48.16 416.256 48.16ZM481.481 45.556C481.481 48.0013 480.735 50.0733 479.241 51.772C477.767 53.4707 475.639 54.7587 472.857 55.636C470.076 56.4947 466.753 56.924 462.889 56.924C458.932 56.924 455.441 56.4387 452.417 55.468C449.412 54.4973 447.06 53.1347 445.361 51.38C443.663 49.6067 442.757 47.5627 442.645 45.248H454.265C454.639 46.5547 455.6 47.5627 457.149 48.272C458.717 48.9813 460.789 49.336 463.365 49.336C465.661 49.336 467.388 49.112 468.545 48.664C469.721 48.216 470.309 47.5533 470.309 46.676C470.309 46.172 470.113 45.7707 469.721 45.472C469.348 45.1547 468.732 44.9027 467.873 44.716C467.033 44.5107 465.876 44.352 464.401 44.24L458.745 43.82C453.276 43.4093 449.375 42.3733 447.041 40.712C444.708 39.0507 443.541 36.7733 443.541 33.88C443.541 31.528 444.279 29.5493 445.753 27.944C447.247 26.32 449.347 25.1067 452.053 24.304C454.76 23.4827 457.933 23.072 461.573 23.072C465.12 23.072 468.303 23.5387 471.121 24.472C473.959 25.4053 476.217 26.712 477.897 28.392C479.596 30.072 480.567 32.004 480.809 34.188H469.189C468.891 33.068 468.069 32.144 466.725 31.416C465.381 30.688 463.487 30.324 461.041 30.324C459.007 30.324 457.448 30.548 456.365 30.996C455.301 31.4253 454.769 32.0413 454.769 32.844C454.769 33.5347 455.105 34.0573 455.777 34.412C456.449 34.7667 457.672 35.0093 459.445 35.14L466.865 35.7C470.487 35.9613 473.371 36.5027 475.517 37.324C477.664 38.1453 479.195 39.2373 480.109 40.6C481.024 41.944 481.481 43.596 481.481 45.556ZM482.98 32.452V27.468L489.504 24.864L494.432 15.4H500.928V23.996H514.396V32.452H500.928V41.916C500.928 43.484 501.124 44.716 501.516 45.612C501.927 46.508 502.599 47.152 503.532 47.544C504.465 47.936 505.772 48.132 507.452 48.132C508.945 48.132 510.289 48.0107 511.484 47.768C512.697 47.5067 513.855 47.1427 514.956 46.676V55.244C513.687 55.7107 512.147 56.1027 510.336 56.42C508.525 56.756 506.696 56.924 504.848 56.924C499.677 56.924 495.823 55.748 493.284 53.396C490.764 51.0253 489.504 47.712 489.504 43.456V32.452H482.98ZM556.122 20.468C554.442 20.468 553.117 20.664 552.146 21.056C551.175 21.448 550.475 22.0453 550.046 22.848C549.635 23.6507 549.43 24.7053 549.43 26.012V26.656H562.45V35.112H549.43V56H537.978V35.112H531.482V26.656H537.978V26.628C537.978 21.924 539.406 18.3027 542.262 15.764C545.118 13.2253 549.271 11.956 554.722 11.956C556.271 11.956 557.69 12.068 558.978 12.292C560.266 12.4973 561.685 12.824 563.234 13.272V21.672C560.938 20.8693 558.567 20.468 556.122 20.468ZM584.473 56.924C580.422 56.924 576.848 56.224 573.749 54.824C570.65 53.4053 568.242 51.4173 566.525 48.86C564.826 46.3027 563.977 43.3533 563.977 40.012C563.977 36.6707 564.826 33.7213 566.525 31.164C568.242 28.588 570.65 26.6 573.749 25.2C576.848 23.7813 580.422 23.072 584.473 23.072C588.524 23.072 592.098 23.7813 595.197 25.2C598.296 26.6 600.694 28.588 602.393 31.164C604.11 33.7213 604.969 36.6707 604.969 40.012C604.969 43.3533 604.11 46.3027 602.393 48.86C600.694 51.4173 598.296 53.4053 595.197 54.824C592.098 56.224 588.524 56.924 584.473 56.924ZM584.473 48.412C586.321 48.412 587.917 48.076 589.261 47.404C590.605 46.732 591.632 45.7707 592.341 44.52C593.05 43.2507 593.405 41.748 593.405 40.012C593.405 38.276 593.041 36.7733 592.313 35.504C591.604 34.2347 590.577 33.264 589.233 32.592C587.908 31.92 586.321 31.584 584.473 31.584C582.625 31.584 581.029 31.92 579.685 32.592C578.341 33.264 577.305 34.2347 576.577 35.504C575.868 36.7733 575.513 38.276 575.513 40.012C575.513 41.748 575.868 43.2507 576.577 44.52C577.305 45.7707 578.341 46.732 579.685 47.404C581.029 48.076 582.625 48.412 584.473 48.412ZM632.583 23.072C633.815 23.072 635.131 23.2213 636.531 23.52V33.292C634.44 32.8627 632.499 32.648 630.707 32.648C627.982 32.648 625.779 33.4693 624.099 35.112C622.419 36.7547 621.579 39.3307 621.579 42.84V56H610.127V34.776L608.027 23.996H619.675L621.075 32.424C623.24 26.1893 627.076 23.072 632.583 23.072ZM663.881 43.26C664.665 44.9587 665.99 46.2653 667.857 47.18C669.724 48.076 672.076 48.524 674.913 48.524C677.265 48.524 679.608 48.216 681.941 47.6C684.274 46.984 686.402 46.1067 688.325 44.968V52.248C686.085 53.76 683.556 54.9173 680.737 55.72C677.918 56.5227 674.894 56.924 671.665 56.924C667.801 56.924 664.338 56.2147 661.277 54.796C658.216 53.3587 655.817 51.352 654.081 48.776C652.345 46.2 651.477 43.2413 651.477 39.9C651.477 36.6147 652.308 33.6933 653.969 31.136C655.649 28.5787 657.964 26.6 660.913 25.2C663.862 23.7813 667.185 23.072 670.881 23.072C674.633 23.072 677.881 23.9027 680.625 25.564C683.369 27.2067 685.469 29.5493 686.925 32.592C688.4 35.616 689.137 39.172 689.137 43.26H663.881ZM671.133 31.136C669.173 31.136 667.512 31.612 666.149 32.564C664.805 33.4973 663.881 34.7667 663.377 36.372H678.497C677.974 34.692 677.078 33.404 675.809 32.508C674.558 31.5933 673 31.136 671.133 31.136ZM710.489 45.864L719.589 23.996H731.797L716.845 56H703.825L688.873 23.996H701.473L710.489 45.864ZM743.998 43.26C744.782 44.9587 746.107 46.2653 747.974 47.18C749.841 48.076 752.193 48.524 755.03 48.524C757.382 48.524 759.725 48.216 762.058 47.6C764.391 46.984 766.519 46.1067 768.442 44.968V52.248C766.202 53.76 763.673 54.9173 760.854 55.72C758.035 56.5227 755.011 56.924 751.782 56.924C747.918 56.924 744.455 56.2147 741.394 54.796C738.333 53.3587 735.934 51.352 734.198 48.776C732.462 46.2 731.594 43.2413 731.594 39.9C731.594 36.6147 732.425 33.6933 734.086 31.136C735.766 28.5787 738.081 26.6 741.03 25.2C743.979 23.7813 747.302 23.072 750.998 23.072C754.75 23.072 757.998 23.9027 760.742 25.564C763.486 27.2067 765.586 29.5493 767.042 32.592C768.517 35.616 769.254 39.172 769.254 43.26H743.998ZM751.25 31.136C749.29 31.136 747.629 31.612 746.266 32.564C744.922 33.4973 743.998 34.7667 743.494 36.372H758.614C758.091 34.692 757.195 33.404 755.926 32.508C754.675 31.5933 753.117 31.136 751.25 31.136ZM797.083 23.072C798.315 23.072 799.631 23.2213 801.031 23.52V33.292C798.94 32.8627 796.999 32.648 795.207 32.648C792.482 32.648 790.279 33.4693 788.599 35.112C786.919 36.7547 786.079 39.3307 786.079 42.84V56H774.627V34.776L772.527 23.996H784.175L785.575 32.424C787.74 26.1893 791.576 23.072 797.083 23.072ZM833.187 23.996H845.367L829.995 56.616C828.427 59.9573 826.383 62.384 823.863 63.896C821.343 65.408 818.571 66.164 815.547 66.164C813.213 66.164 811.123 65.8747 809.275 65.296C807.445 64.736 805.663 63.8307 803.927 62.58V54.656C805.7 55.776 807.352 56.5787 808.883 57.064C810.413 57.5493 812.093 57.792 813.923 57.792C815.584 57.792 816.984 57.4373 818.123 56.728C819.261 56.0187 820.195 54.8053 820.923 53.088L820.951 53.004H815.939L802.331 23.996H814.959L823.975 45.836L833.187 23.996ZM865.676 56.924C861.625 56.924 858.051 56.224 854.952 54.824C851.853 53.4053 849.445 51.4173 847.728 48.86C846.029 46.3027 845.18 43.3533 845.18 40.012C845.18 36.6707 846.029 33.7213 847.728 31.164C849.445 28.588 851.853 26.6 854.952 25.2C858.051 23.7813 861.625 23.072 865.676 23.072C869.727 23.072 873.301 23.7813 876.4 25.2C879.499 26.6 881.897 28.588 883.596 31.164C885.313 33.7213 886.172 36.6707 886.172 40.012C886.172 43.3533 885.313 46.3027 883.596 48.86C881.897 51.4173 879.499 53.4053 876.4 54.824C873.301 56.224 869.727 56.924 865.676 56.924ZM865.676 48.412C867.524 48.412 869.12 48.076 870.464 47.404C871.808 46.732 872.835 45.7707 873.544 44.52C874.253 43.2507 874.608 41.748 874.608 40.012C874.608 38.276 874.244 36.7733 873.516 35.504C872.807 34.2347 871.78 33.264 870.436 32.592C869.111 31.92 867.524 31.584 865.676 31.584C863.828 31.584 862.232 31.92 860.888 32.592C859.544 33.264 858.508 34.2347 857.78 35.504C857.071 36.7733 856.716 38.276 856.716 40.012C856.716 41.748 857.071 43.2507 857.78 44.52C858.508 45.7707 859.544 46.732 860.888 47.404C862.232 48.076 863.828 48.412 865.676 48.412ZM914.514 23.072C917.538 23.072 920.142 23.688 922.326 24.92C924.51 26.1333 926.171 27.8693 927.31 30.128C928.449 32.3867 929.018 35.0467 929.018 38.108V56H917.594V39.788C917.594 37.3987 916.987 35.5693 915.774 34.3C914.561 33.0307 912.815 32.396 910.538 32.396C908.951 32.396 907.57 32.732 906.394 33.404C905.237 34.0573 904.341 35.0093 903.706 36.26C903.09 37.492 902.782 38.9387 902.782 40.6V56H891.33V35.056L889.23 23.996H900.682L901.774 30.66C903.155 28.196 904.947 26.32 907.15 25.032C909.371 23.7253 911.826 23.072 914.514 23.072ZM945.85 43.26C946.634 44.9587 947.959 46.2653 949.826 47.18C951.692 48.076 954.044 48.524 956.882 48.524C959.234 48.524 961.576 48.216 963.91 47.6C966.243 46.984 968.371 46.1067 970.294 44.968V52.248C968.054 53.76 965.524 54.9173 962.706 55.72C959.887 56.5227 956.863 56.924 953.634 56.924C949.77 56.924 946.307 56.2147 943.246 54.796C940.184 53.3587 937.786 51.352 936.05 48.776C934.314 46.2 933.446 43.2413 933.446 39.9C933.446 36.6147 934.276 33.6933 935.938 31.136C937.618 28.5787 939.932 26.6 942.882 25.2C945.831 23.7813 949.154 23.072 952.85 23.072C956.602 23.072 959.85 23.9027 962.594 25.564C965.338 27.2067 967.438 29.5493 968.894 32.592C970.368 35.616 971.106 39.172 971.106 43.26H945.85ZM953.102 31.136C951.142 31.136 949.48 31.612 948.118 32.564C946.774 33.4973 945.85 34.7667 945.346 36.372H960.466C959.943 34.692 959.047 33.404 957.778 32.508C956.527 31.5933 954.968 31.136 953.102 31.136ZM981.291 56.588C980.096 56.588 979.004 56.308 978.015 55.748C977.044 55.1693 976.269 54.3947 975.691 53.424C975.131 52.4347 974.851 51.3427 974.851 50.148C974.851 48.9533 975.131 47.8707 975.691 46.9C976.269 45.9107 977.044 45.136 978.015 44.576C979.004 43.9973 980.096 43.708 981.291 43.708C982.485 43.708 983.568 43.9973 984.539 44.576C985.528 45.136 986.303 45.9107 986.863 46.9C987.441 47.8707 987.731 48.9533 987.731 50.148C987.731 51.3427 987.441 52.4347 986.863 53.424C986.303 54.3947 985.528 55.1693 984.539 55.748C983.568 56.308 982.485 56.588 981.291 56.588Z" fill="white"/>
<mask id="mask0_591_28" style="mask-type:luminance" maskUnits="userSpaceOnUse" x="0" y="14" width="274" height="42">
<path d="M0 14H273.798V56H0V14Z" fill="white"/>
</mask>
<g mask="url(#mask0_591_28)">
<path d="M45.9992 47.1154L38.4891 55.4273C38.3263 55.6075 38.1295 55.7512 37.9108 55.8498C37.6921 55.9483 37.4561 55.9995 37.2175 56.0002H1.61453C1.44509 55.9993 1.27957 55.9475 1.13807 55.8513C0.996569 55.7551 0.885187 55.6185 0.817457 55.4582C0.749727 55.2979 0.728564 55.1207 0.756541 54.9482C0.784519 54.7757 0.860431 54.6153 0.975053 54.4865L8.47602 46.1745C8.63879 45.9944 8.83561 45.8506 9.05432 45.7521C9.27303 45.6536 9.50899 45.6024 9.74762 45.6017H45.3506C45.5219 45.5981 45.6903 45.647 45.8349 45.742C45.9794 45.837 46.0934 45.974 46.1628 46.1357C46.2321 46.2975 46.2535 46.4768 46.2244 46.6511C46.1953 46.8254 46.117 46.9869 45.9992 47.1154ZM38.4891 30.3719C38.3256 30.1926 38.1287 30.0495 37.9101 29.951C37.6916 29.8525 37.4559 29.8008 37.2175 29.799H1.61453C1.44473 29.7991 1.27866 29.8504 1.13664 29.9464C0.99462 30.0425 0.882828 30.1792 0.814956 30.3399C0.747084 30.5005 0.72608 30.6781 0.754516 30.8509C0.782952 31.0237 0.859594 31.1842 0.975053 31.3127L8.47602 39.6304C8.63946 39.8096 8.83641 39.9528 9.05497 40.0513C9.27353 40.1497 9.50916 40.2014 9.74762 40.2032H45.3506C45.5197 40.2016 45.6847 40.1493 45.8257 40.0528C45.9666 39.9563 46.0774 39.8197 46.1447 39.6596C46.212 39.4994 46.2328 39.3225 46.2047 39.1503C46.1766 38.9782 46.1008 38.8181 45.9864 38.6896L38.4891 30.3719ZM1.61453 24.4006H37.2175C37.4561 24.3999 37.6921 24.3487 37.9108 24.2502C38.1295 24.1517 38.3263 24.0079 38.4891 23.8278L45.9992 15.5139C46.0866 15.4175 46.1524 15.3024 46.1919 15.1768C46.2314 15.0513 46.2437 14.9183 46.2279 14.7873C46.2122 14.6562 46.1687 14.5304 46.1006 14.4187C46.0325 14.3069 45.9414 14.212 45.8338 14.1406C45.6898 14.0454 45.5216 13.9965 45.3506 14.0002H9.74762C9.50899 14.0009 9.27303 14.0521 9.05432 14.1506C8.83561 14.2491 8.63879 14.3929 8.47602 14.573L0.975053 22.8869C0.859594 23.0154 0.782952 23.1759 0.754516 23.3487C0.72608 23.5215 0.747084 23.6991 0.814956 23.8598C0.882828 24.0204 0.99462 24.1572 1.13664 24.2532C1.27866 24.3493 1.44473 24.4005 1.61453 24.4006Z" fill="url(#paint0_linear_591_28)"/>
<path d="M89.4004 31.7647H70.354V25.2869H94.3527V18.8149H70.2878C68.6277 18.8058 67.0321 19.4777 65.8518 20.6829C64.6716 21.8881 64.0034 23.5278 63.9941 25.2414V31.8045C63.9975 32.6537 64.163 33.494 64.4813 34.2771C64.7995 35.0602 65.2642 35.7709 65.8487 36.3685C66.4333 36.9661 67.1262 37.4388 67.8879 37.7597C68.6496 38.0806 69.4651 38.2434 70.2878 38.2386H89.3618V44.7145H64.4499V51.1884H89.4004C91.0601 51.196 92.6548 50.5236 93.8348 49.3187C95.0147 48.1139 95.6834 46.4751 95.6941 44.7619V38.1988C95.6907 37.3496 95.5252 36.5093 95.207 35.7262C94.8887 34.9431 94.4241 34.2324 93.8395 33.6348C93.255 33.0372 92.562 32.5645 91.8003 32.2436C91.0386 31.9227 90.2231 31.7599 89.4004 31.7647ZM126.299 18.8149H107.183C106.359 18.8082 105.543 18.9691 104.78 19.2886C104.017 19.6081 103.322 20.0799 102.736 20.6768C102.15 21.2738 101.683 21.9842 101.364 22.7675C101.044 23.5508 100.877 24.3915 100.872 25.2414V44.7619C100.876 45.6121 101.043 46.4533 101.362 47.237C101.682 48.0207 102.148 48.7316 102.734 49.3288C103.32 49.9261 104.015 50.398 104.779 50.7174C105.542 51.0368 106.359 51.1975 107.183 51.1903H126.303C127.125 51.1948 127.94 51.0321 128.701 50.7115C129.462 50.3908 130.155 49.9186 130.739 49.3216C131.324 48.7247 131.788 48.0148 132.107 47.2324C132.426 46.45 132.592 45.6106 132.596 44.7619V25.2414C132.591 23.963 132.218 22.7149 131.524 21.6558C130.831 20.5966 129.848 19.7742 128.701 19.2929C127.939 18.9723 127.125 18.8098 126.303 18.8149H126.299ZM126.253 44.7145H107.227V25.2907H126.246L126.253 44.7145ZM193.265 18.8149H174.618C172.958 18.8058 171.362 19.4777 170.182 20.6829C169.002 21.8881 168.333 23.5278 168.324 25.2414V51.1903H174.682V40.5547H193.245V51.1903H199.603V25.2414C199.596 23.9578 199.219 22.7055 198.52 21.6438C197.821 20.5822 196.832 19.7592 195.678 19.2796C194.912 18.9609 194.092 18.8023 193.265 18.813V18.8149ZM193.219 34.0788H174.656V25.2888H193.219V34.0788ZM267.501 18.8149H248.852C248.03 18.8102 247.215 18.9726 246.454 19.2931C245.693 19.6135 245 20.0856 244.415 20.6823C243.831 21.2791 243.366 21.9889 243.048 22.7712C242.729 23.5534 242.563 24.3928 242.558 25.2414V51.1903H248.916V40.5547H267.437V51.1903H273.795V25.2414C273.783 23.5284 273.115 21.8899 271.937 20.6833C271.353 20.0859 270.661 19.6134 269.9 19.2927C269.139 18.9721 268.324 18.8097 267.501 18.8149ZM267.437 34.0788H248.874V25.2888H267.437V34.0788ZM230.564 44.7145H228.021L218.929 21.5274C218.62 20.7257 218.084 20.0384 217.392 19.5548C216.699 19.0711 215.882 18.8133 215.046 18.8149H209.405C208.857 18.8117 208.313 18.92 207.805 19.1338C207.298 19.3475 206.836 19.6625 206.446 20.0606C206.057 20.4588 205.747 20.9323 205.535 21.4541C205.322 21.976 205.212 22.5358 205.21 23.1018V51.1903H211.568V25.2869H214.111L223.198 48.4759C223.514 49.2745 224.054 49.9575 224.749 50.4373C225.443 50.9172 226.261 51.1721 227.097 51.1694H232.738C233.287 51.1727 233.83 51.0643 234.338 50.8506C234.845 50.6368 235.307 50.3219 235.697 49.9237C236.086 49.5256 236.396 49.052 236.608 48.5302C236.821 48.0084 236.931 47.4485 236.933 46.8826V18.8149H230.564V44.7145ZM144.566 18.8149H138.208V44.7638C138.212 45.6145 138.379 46.4561 138.699 47.2401C139.019 48.0241 139.486 48.735 140.073 49.3322C140.66 49.9294 141.356 50.4009 142.12 50.7198C142.884 51.0387 143.702 51.1986 144.526 51.1903H163.596V44.7145H144.568L144.566 18.8149Z" fill="white"/>
</g>
<defs>
<linearGradient id="paint0_linear_591_28" x1="4.58221" y1="57.0036" x2="43.2437" y2="14.7771" gradientUnits="userSpaceOnUse">
<stop offset="0.08" stop-color="#9945FF"/>
<stop offset="0.3" stop-color="#8752F3"/>
<stop offset="0.5" stop-color="#5497D5"/>
<stop offset="0.6" stop-color="#43B4CA"/>
<stop offset="0.72" stop-color="#28E0B9"/>
<stop offset="0.97" stop-color="#19FB9B"/>
</linearGradient>
</defs>
</svg>
